<svg xmlns="http://www.w3.org/2000/svg" xmlns:xlink="http://www.w3.org/1999/xlink" id="Layer_1" x="0" y="0" version="1.1" viewBox="0 0 16 16" xml:space="preserve" style="enable-background:new 0 0 16 16"><style type="text/css">.st0{fill:#424c55}</style><path d="M8,0C4.3,0,2,2.1,2,5.5c0,2.4,2.1,4.3,3,5V14c0,1.5,1.6,2,3,2s3-0.5,3-2v-3.5c0.9-0.7,3-2.6,3-5	C14,2.1,11.7,0,8,0z M9,12H7v-1h2V12z M8,14c-0.3,0-0.7-0.1-1-0.2V13h2v0.8C8.7,13.9,8.3,14,8,14z M9.4,9.2C9.2,9.4,9,9.7,9,10H7	c0-0.3-0.2-0.6-0.4-0.8C5.8,8.7,4,7.1,4,5.5C4,2.6,6.2,2,8,2s4,0.6,4,3.5C12,7.1,10.2,8.7,9.4,9.2z" class="st0"/></svg>