<svg xmlns="http://www.w3.org/2000/svg" xmlns:xlink="http://www.w3.org/1999/xlink" id="Layer_1" x="0" y="0" version="1.1" viewBox="0 0 16 16" xml:space="preserve" style="enable-background:new 0 0 16 16"><style type="text/css">.st0{fill:#424c55}</style><path d="M13,1H3C1.3,1,0,2.3,0,4v8c0,1.7,1.3,3,3,3h10c1.7,0,3-1.3,3-3V4C16,2.3,14.7,1,13,1z M2,12V4c0-0.6,0.4-1,1-1	h5v10H3C2.4,13,2,12.6,2,12z M14,12c0,0.6-0.4,1-1,1H9V3h4c0.6,0,1,0.4,1,1V12z" class="st0"/><path d="M5.9,6.3h-2C3.6,6.3,3.4,6,3.4,5.8s0.2-0.5,0.5-0.5h2c0.3,0,0.5,0.2,0.5,0.5S6.2,6.3,5.9,6.3z M5.9,8.3h-2	C3.6,8.3,3.4,8,3.4,7.8s0.2-0.5,0.5-0.5h2c0.3,0,0.5,0.2,0.5,0.5S6.2,8.3,5.9,8.3z M4.9,10.3h-1c-0.3,0-0.5-0.2-0.5-0.5	s0.2-0.5,0.5-0.5h1c0.3,0,0.5,0.2,0.5,0.5S5.2,10.3,4.9,10.3z" class="st0"/></svg>