<svg xmlns="http://www.w3.org/2000/svg" xmlns:xlink="http://www.w3.org/1999/xlink" id="Layer_1" x="0" y="0" version="1.1" viewBox="0 0 16 16" xml:space="preserve" style="enable-background:new 0 0 16 16"><style type="text/css">.st0{fill:#424c55}</style><path d="M14,1c-0.6,0-1,0.4-1,1v1.1c-2.7-2.8-7.1-2.9-9.8-0.2C2.2,3.8,1.5,5,1.2,6.3C1.1,6.8,1.4,7.4,1.9,7.5	C2.5,7.7,3,7.4,3.2,6.8c0,0,0,0,0,0C3.7,4.6,5.7,3,8,3c1.6,0,3,0.7,4,2h-2C9.4,5,9,5.4,9,6s0.4,1,1,1h4c0.6,0,1-0.4,1-1V2	C15,1.4,14.6,1,14,1z M14,8.5c-0.5-0.1-1.1,0.2-1.2,0.7c0,0,0,0,0,0C12.3,11.4,10.3,13,8,13c-1.6,0-3-0.7-4-2h2c0.6,0,1-0.4,1-1	S6.6,9,6,9H2c-0.6,0-1,0.4-1,1v4c0,0.6,0.4,1,1,1s1-0.4,1-1v-1.1c2.7,2.8,7.1,2.9,9.8,0.2c1-0.9,1.6-2.1,1.9-3.4	C14.9,9.2,14.6,8.6,14,8.5z" class="st0"/></svg>